<svg width="1617" height="572" viewBox="0 0 1617 572" fill="none" xmlns="http://www.w3.org/2000/svg">
<g clip-path="url(#clip0_1775_4849)">
<path d="M523.694 298L525.647 288.723H538.709C540.174 288.723 541.517 288.275 542.737 287.38C543.958 286.403 545.423 284.491 547.132 281.643L634.9 133.693H653.333L676.893 281.887C677.381 284.654 678.073 286.485 678.968 287.38C679.944 288.275 681.491 288.723 683.606 288.723H695.691L693.738 298H616.956L618.787 288.723H637.586C638.888 288.723 640.109 288.275 641.248 287.38C642.469 286.403 642.916 284.45 642.591 281.521L626.233 163.112L630.994 159.572L560.193 281.032C558.322 284.125 557.793 286.2 558.606 287.258C559.42 288.234 560.519 288.723 561.902 288.723H582.044L580.091 298H523.694ZM578.016 242.58L579.358 232.448H664.441L663.099 242.58H578.016ZM714.124 298L733.167 211.452C733.574 209.58 733.859 207.871 734.021 206.325C734.266 204.698 734.388 203.273 734.388 202.053C734.388 199.286 733.859 197.17 732.801 195.705C731.743 194.159 730.075 193.142 727.796 192.653L718.641 190.7L720.35 182.644L771.009 179.836L766.614 209.377C770.358 203.762 774.467 198.675 778.943 194.118C783.419 189.561 788.424 185.98 793.958 183.376C799.492 180.772 805.636 179.47 812.391 179.47C820.773 179.47 827.161 181.87 831.556 186.672C835.95 191.473 838.147 198.472 838.147 207.668C838.147 210.028 837.985 212.591 837.659 215.358C837.415 218.044 836.967 220.852 836.316 223.781L820.325 298H786.268L803.113 219.509C803.439 218.207 803.642 216.945 803.724 215.725C803.886 214.504 803.968 213.283 803.968 212.062C803.968 208.319 803.154 205.186 801.526 202.663C799.98 200.059 797.539 198.757 794.202 198.757C790.621 198.757 787.081 199.855 783.582 202.053C780.083 204.25 776.746 207.261 773.572 211.086C770.398 214.829 767.347 219.183 764.417 224.147L748.182 298H714.124ZM890.882 299.953C886.487 299.953 882.215 299.261 878.064 297.878C873.995 296.413 870.618 293.972 867.933 290.554C865.328 287.054 864.026 282.294 864.026 276.271C864.026 274.644 864.148 272.935 864.393 271.145C864.637 269.273 864.962 267.36 865.369 265.407L875.013 219.509C875.257 218.207 875.46 216.945 875.623 215.725C875.786 214.504 875.867 213.283 875.867 212.062C875.867 208.319 875.053 205.186 873.426 202.663C871.88 200.059 869.438 198.757 866.102 198.757C862.439 198.757 858.859 199.855 855.359 202.053C851.86 204.25 848.442 207.302 845.105 211.208C841.85 215.033 838.636 219.468 835.462 224.514L836.805 210.476C840.792 204.453 845.146 199.123 849.866 194.484C854.586 189.764 859.754 186.102 865.369 183.498C871.066 180.812 877.332 179.47 884.168 179.47C892.55 179.47 898.938 181.87 903.333 186.672C907.809 191.473 910.047 198.472 910.047 207.668C910.047 210.028 909.884 212.591 909.559 215.358C909.233 218.044 908.745 220.852 908.094 223.781L898.694 267.604C898.369 268.907 898.125 270.168 897.962 271.389C897.799 272.528 897.718 273.627 897.718 274.685C897.718 279.242 899.264 282.66 902.356 284.938C905.53 287.217 910.779 288.356 918.104 288.356L916.272 296.535C912.122 297.674 908.175 298.529 904.432 299.099C900.688 299.668 896.172 299.953 890.882 299.953ZM1008.07 300.197C1000.09 300.197 993.299 298.529 987.684 295.192C982.15 291.774 977.837 287.868 974.744 283.474L968.885 298H938.001L968.885 152.492C969.292 150.702 969.576 149.034 969.739 147.487C969.902 145.941 969.983 144.558 969.983 143.337C969.983 140.57 969.454 138.413 968.396 136.867C967.42 135.321 965.752 134.304 963.392 133.815L954.236 131.862L955.945 123.806L1009.78 120.998L993.543 196.804C998.1 191.595 1003.43 187.282 1009.53 183.864C1015.72 180.446 1023.08 178.737 1031.63 178.737C1043.1 178.737 1052.38 182.562 1059.46 190.212C1066.54 197.78 1070.08 208.645 1070.08 222.805C1070.08 228.827 1069.39 235.337 1068.01 242.336C1066.62 249.253 1064.47 256.13 1061.54 262.966C1058.61 269.72 1054.74 275.905 1049.94 281.521C1045.14 287.136 1039.28 291.652 1032.36 295.07C1025.44 298.488 1017.35 300.197 1008.07 300.197ZM1000.26 286.403C1005.3 286.403 1009.74 284.735 1013.56 281.398C1017.47 277.98 1020.85 273.586 1023.69 268.215C1026.54 262.762 1028.9 256.944 1030.77 250.759C1032.73 244.574 1034.15 238.592 1035.05 232.814C1035.94 227.036 1036.39 222.154 1036.39 218.166C1036.39 210.109 1034.88 204.047 1031.87 199.978C1028.86 195.827 1024.59 193.752 1019.06 193.752C1013.2 193.752 1007.7 195.542 1002.58 199.123C997.531 202.704 993.543 206.651 990.613 210.964L977.918 270.534C979.464 274.196 982.231 277.777 986.219 281.276C990.206 284.694 994.886 286.403 1000.26 286.403ZM1119.89 299.343C1112.64 299.343 1106.54 297.552 1101.58 293.972C1096.69 290.391 1094.25 284.287 1094.25 275.661C1094.25 273.789 1094.37 271.796 1094.62 269.68C1094.94 267.482 1095.35 265.163 1095.84 262.722L1107.43 211.452C1107.84 209.662 1108.17 207.993 1108.41 206.447C1108.66 204.901 1108.78 203.518 1108.78 202.297C1108.78 199.449 1108.21 197.251 1107.07 195.705C1106.01 194.159 1104.3 193.142 1101.94 192.653L1092.79 190.7L1094.5 182.644L1148.33 179.836L1129.29 264.309C1128.88 266.262 1128.55 268.093 1128.31 269.802C1128.06 271.429 1127.94 272.935 1127.94 274.318C1127.94 279.445 1129.49 283.026 1132.58 285.061C1135.67 287.095 1140.56 288.112 1147.23 288.112L1145.4 296.413C1141 297.227 1136.81 297.919 1132.83 298.488C1128.92 299.058 1124.61 299.343 1119.89 299.343ZM1136.37 161.77C1130.18 161.77 1125.38 160.101 1121.96 156.765C1118.54 153.428 1116.83 149.44 1116.83 144.802C1116.83 140.163 1118.54 136.216 1121.96 132.961C1125.38 129.706 1130.18 128.078 1136.37 128.078C1142.71 128.078 1147.51 129.706 1150.77 132.961C1154.11 136.216 1155.77 140.163 1155.77 144.802C1155.77 149.44 1154.11 153.428 1150.77 156.765C1147.51 160.101 1142.71 161.77 1136.37 161.77ZM1208.02 299.343C1194.84 299.343 1185.8 296.088 1180.92 289.577C1176.04 282.985 1175.1 272.487 1178.11 258.083L1192.15 191.677H1172.5L1174.94 180.446H1195.08L1201.55 150.905L1235.49 148.098L1228.65 180.446H1258.19L1255.75 191.677H1226.21L1211.56 260.402C1210.18 267.157 1209.73 272.569 1210.22 276.638C1210.71 280.625 1212.62 283.474 1215.96 285.183C1219.29 286.892 1224.5 287.746 1231.58 287.746H1238.29L1236.34 297.39C1232.84 297.878 1228.73 298.326 1224.01 298.732C1219.37 299.139 1214.04 299.343 1208.02 299.343ZM1293.23 299.343C1285.98 299.343 1279.88 297.552 1274.92 293.972C1270.03 290.391 1267.59 284.287 1267.59 275.661C1267.59 273.789 1267.71 271.796 1267.96 269.68C1268.28 267.482 1268.69 265.163 1269.18 262.722L1280.77 211.452C1281.18 209.662 1281.51 207.993 1281.75 206.447C1282 204.901 1282.12 203.518 1282.12 202.297C1282.12 199.449 1281.55 197.251 1280.41 195.705C1279.35 194.159 1277.64 193.142 1275.28 192.653L1266.13 190.7L1267.83 182.644L1321.67 179.836L1302.62 264.309C1302.22 266.262 1301.89 268.093 1301.65 269.802C1301.4 271.429 1301.28 272.935 1301.28 274.318C1301.28 279.445 1302.83 283.026 1305.92 285.061C1309.01 287.095 1313.9 288.112 1320.57 288.112L1318.74 296.413C1314.34 297.227 1310.15 297.919 1306.17 298.488C1302.26 299.058 1297.95 299.343 1293.23 299.343ZM1309.71 161.77C1303.52 161.77 1298.72 160.101 1295.3 156.765C1291.88 153.428 1290.17 149.44 1290.17 144.802C1290.17 140.163 1291.88 136.216 1295.3 132.961C1298.72 129.706 1303.52 128.078 1309.71 128.078C1316.05 128.078 1320.85 129.706 1324.11 132.961C1327.45 136.216 1329.11 140.163 1329.11 144.802C1329.11 149.44 1327.45 153.428 1324.11 156.765C1320.85 160.101 1316.05 161.77 1309.71 161.77ZM1393.81 299.953C1377.7 299.953 1365.21 295.396 1356.34 286.281C1347.47 277.167 1343.03 265.326 1343.03 250.759C1343.03 242.539 1344.33 234.198 1346.94 225.734C1349.62 217.189 1353.73 209.336 1359.27 202.175C1364.88 195.013 1372.08 189.235 1380.87 184.841C1389.74 180.365 1400.36 178.127 1412.73 178.127C1428.68 178.127 1440.97 182.766 1449.6 192.043C1458.31 201.32 1462.66 213.365 1462.66 228.176C1462.66 237.128 1461.24 245.876 1458.39 254.421C1455.62 262.966 1451.39 270.697 1445.69 277.614C1439.99 284.45 1432.83 289.903 1424.21 293.972C1415.66 297.959 1405.53 299.953 1393.81 299.953ZM1395.15 289.821C1400.44 289.821 1405.04 288.031 1408.95 284.45C1412.85 280.788 1416.15 276.068 1418.84 270.29C1421.52 264.512 1423.68 258.368 1425.31 251.857C1427.01 245.266 1428.24 238.959 1428.97 232.937C1429.7 226.914 1430.07 221.91 1430.07 217.922C1430.07 209.133 1428.56 202.012 1425.55 196.56C1422.54 191.107 1417.82 188.381 1411.39 188.381C1406.1 188.381 1401.5 190.09 1397.6 193.508C1393.69 196.926 1390.35 201.361 1387.59 206.813C1384.9 212.266 1382.7 218.166 1380.99 224.514C1379.37 230.78 1378.15 236.883 1377.33 242.824C1376.6 248.765 1376.23 253.811 1376.23 257.961C1376.23 263.983 1376.88 269.395 1378.19 274.196C1379.57 278.998 1381.65 282.823 1384.41 285.671C1387.26 288.438 1390.84 289.821 1395.15 289.821ZM1588.64 299.953C1583.75 299.953 1579.36 299.302 1575.45 298C1571.63 296.779 1568.58 294.623 1566.3 291.53C1564.02 288.356 1562.88 284.003 1562.88 278.469C1562.88 276.678 1563.04 274.603 1563.37 272.243C1563.69 269.802 1564.1 267.523 1564.59 265.407L1574.23 219.875C1574.56 218.41 1574.76 217.067 1574.84 215.847C1575 214.545 1575.09 213.324 1575.09 212.185C1575.09 208.278 1574.19 205.064 1572.4 202.541C1570.61 200.018 1567.72 198.757 1563.73 198.757C1560.07 198.757 1556.45 199.855 1552.87 202.053C1549.37 204.25 1545.99 207.261 1542.74 211.086C1539.48 214.829 1536.39 219.183 1533.46 224.147L1517.22 298H1483.17L1502.21 211.452C1502.62 209.58 1502.9 207.871 1503.06 206.325C1503.31 204.698 1503.43 203.273 1503.43 202.053C1503.43 199.286 1502.9 197.17 1501.84 195.705C1500.79 194.159 1499.12 193.142 1496.84 192.653L1487.68 190.7L1489.39 182.644L1540.05 179.836L1535.66 209.377C1539.4 203.762 1543.51 198.675 1547.99 194.118C1552.54 189.561 1557.63 185.98 1563.25 183.376C1568.86 180.772 1575.05 179.47 1581.8 179.47C1590.83 179.47 1597.67 181.87 1602.31 186.672C1607.03 191.473 1609.39 198.513 1609.39 207.79C1609.39 210.069 1609.22 212.591 1608.9 215.358C1608.57 218.044 1608.09 220.852 1607.43 223.781L1597.91 267.604C1597.67 268.907 1597.47 270.168 1597.3 271.389C1597.14 272.528 1597.06 273.627 1597.06 274.685C1597.06 279.242 1598.52 282.66 1601.45 284.938C1604.46 287.217 1609.51 288.356 1616.59 288.356L1614.76 296.535C1610.77 297.674 1606.66 298.529 1602.43 299.099C1598.2 299.668 1593.6 299.953 1588.64 299.953Z" fill="#296B9F"/>
<path d="M523.694 297L525.647 287.723H538.709C540.174 287.723 541.517 287.275 542.737 286.38C543.958 285.403 545.423 283.491 547.132 280.643L634.9 132.693H653.333L676.893 280.887C677.381 283.654 678.073 285.485 678.968 286.38C679.944 287.275 681.491 287.723 683.606 287.723H695.691L693.738 297H616.956L618.787 287.723H637.586C638.888 287.723 640.109 287.275 641.248 286.38C642.469 285.403 642.916 283.45 642.591 280.521L626.233 162.112L630.994 158.572L560.193 280.032C558.322 283.125 557.793 285.2 558.606 286.258C559.42 287.234 560.519 287.723 561.902 287.723H582.044L580.091 297H523.694ZM578.016 241.58L579.358 231.448H664.441L663.099 241.58H578.016ZM714.124 297L733.167 210.452C733.574 208.58 733.859 206.871 734.021 205.325C734.266 203.698 734.388 202.273 734.388 201.053C734.388 198.286 733.859 196.17 732.801 194.705C731.743 193.159 730.075 192.142 727.796 191.653L718.641 189.7L720.35 181.644L771.009 178.836L766.614 208.377C770.358 202.762 774.467 197.675 778.943 193.118C783.419 188.561 788.424 184.98 793.958 182.376C799.492 179.772 805.636 178.47 812.391 178.47C820.773 178.47 827.161 180.87 831.556 185.672C835.95 190.473 838.147 197.472 838.147 206.668C838.147 209.028 837.985 211.591 837.659 214.358C837.415 217.044 836.967 219.852 836.316 222.781L820.325 297H786.268L803.113 218.509C803.439 217.207 803.642 215.945 803.724 214.725C803.886 213.504 803.968 212.283 803.968 211.062C803.968 207.319 803.154 204.186 801.526 201.663C799.98 199.059 797.539 197.757 794.202 197.757C790.621 197.757 787.081 198.855 783.582 201.053C780.083 203.25 776.746 206.261 773.572 210.086C770.398 213.829 767.347 218.183 764.417 223.147L748.182 297H714.124ZM890.882 298.953C886.487 298.953 882.215 298.261 878.064 296.878C873.995 295.413 870.618 292.972 867.933 289.554C865.328 286.054 864.026 281.294 864.026 275.271C864.026 273.644 864.148 271.935 864.393 270.145C864.637 268.273 864.962 266.36 865.369 264.407L875.013 218.509C875.257 217.207 875.46 215.945 875.623 214.725C875.786 213.504 875.867 212.283 875.867 211.062C875.867 207.319 875.053 204.186 873.426 201.663C871.88 199.059 869.438 197.757 866.102 197.757C862.439 197.757 858.859 198.855 855.359 201.053C851.86 203.25 848.442 206.302 845.105 210.208C841.85 214.033 838.636 218.468 835.462 223.514L836.805 209.476C840.792 203.453 845.146 198.123 849.866 193.484C854.586 188.764 859.754 185.102 865.369 182.498C871.066 179.812 877.332 178.47 884.168 178.47C892.55 178.47 898.938 180.87 903.333 185.672C907.809 190.473 910.047 197.472 910.047 206.668C910.047 209.028 909.884 211.591 909.559 214.358C909.233 217.044 908.745 219.852 908.094 222.781L898.694 266.604C898.369 267.907 898.125 269.168 897.962 270.389C897.799 271.528 897.718 272.627 897.718 273.685C897.718 278.242 899.264 281.66 902.356 283.938C905.53 286.217 910.779 287.356 918.104 287.356L916.272 295.535C912.122 296.674 908.175 297.529 904.432 298.099C900.688 298.668 896.172 298.953 890.882 298.953ZM1008.07 299.197C1000.09 299.197 993.299 297.529 987.684 294.192C982.15 290.774 977.837 286.868 974.744 282.474L968.885 297H938.001L968.885 151.492C969.292 149.702 969.576 148.034 969.739 146.487C969.902 144.941 969.983 143.558 969.983 142.337C969.983 139.57 969.454 137.413 968.396 135.867C967.42 134.321 965.752 133.304 963.392 132.815L954.236 130.862L955.945 122.806L1009.78 119.998L993.543 195.804C998.1 190.595 1003.43 186.282 1009.53 182.864C1015.72 179.446 1023.08 177.737 1031.63 177.737C1043.1 177.737 1052.38 181.562 1059.46 189.212C1066.54 196.78 1070.08 207.645 1070.08 221.805C1070.08 227.827 1069.39 234.337 1068.01 241.336C1066.62 248.253 1064.47 255.13 1061.54 261.966C1058.61 268.72 1054.74 274.905 1049.94 280.521C1045.14 286.136 1039.28 290.652 1032.36 294.07C1025.44 297.488 1017.35 299.197 1008.07 299.197ZM1000.26 285.403C1005.3 285.403 1009.74 283.735 1013.56 280.398C1017.47 276.98 1020.85 272.586 1023.69 267.215C1026.54 261.762 1028.9 255.944 1030.77 249.759C1032.73 243.574 1034.15 237.592 1035.05 231.814C1035.94 226.036 1036.39 221.154 1036.39 217.166C1036.39 209.109 1034.88 203.047 1031.87 198.978C1028.86 194.827 1024.59 192.752 1019.06 192.752C1013.2 192.752 1007.7 194.542 1002.58 198.123C997.531 201.704 993.543 205.651 990.613 209.964L977.918 269.534C979.464 273.196 982.231 276.777 986.219 280.276C990.206 283.694 994.886 285.403 1000.26 285.403ZM1119.89 298.343C1112.64 298.343 1106.54 296.552 1101.58 292.972C1096.69 289.391 1094.25 283.287 1094.25 274.661C1094.25 272.789 1094.37 270.796 1094.62 268.68C1094.94 266.482 1095.35 264.163 1095.84 261.722L1107.43 210.452C1107.84 208.662 1108.17 206.993 1108.41 205.447C1108.66 203.901 1108.78 202.518 1108.78 201.297C1108.78 198.449 1108.21 196.251 1107.07 194.705C1106.01 193.159 1104.3 192.142 1101.94 191.653L1092.79 189.7L1094.5 181.644L1148.33 178.836L1129.29 263.309C1128.88 265.262 1128.55 267.093 1128.31 268.802C1128.06 270.429 1127.94 271.935 1127.94 273.318C1127.94 278.445 1129.49 282.026 1132.58 284.061C1135.67 286.095 1140.56 287.112 1147.23 287.112L1145.4 295.413C1141 296.227 1136.81 296.919 1132.83 297.488C1128.92 298.058 1124.61 298.343 1119.89 298.343ZM1136.37 160.77C1130.18 160.77 1125.38 159.101 1121.96 155.765C1118.54 152.428 1116.83 148.44 1116.83 143.802C1116.83 139.163 1118.54 135.216 1121.96 131.961C1125.38 128.706 1130.18 127.078 1136.37 127.078C1142.71 127.078 1147.51 128.706 1150.77 131.961C1154.11 135.216 1155.77 139.163 1155.77 143.802C1155.77 148.44 1154.11 152.428 1150.77 155.765C1147.51 159.101 1142.71 160.77 1136.37 160.77ZM1208.02 298.343C1194.84 298.343 1185.8 295.088 1180.92 288.577C1176.04 281.985 1175.1 271.487 1178.11 257.083L1192.15 190.677H1172.5L1174.94 179.446H1195.08L1201.55 149.905L1235.49 147.098L1228.65 179.446H1258.19L1255.75 190.677H1226.21L1211.56 259.402C1210.18 266.157 1209.73 271.569 1210.22 275.638C1210.71 279.625 1212.62 282.474 1215.96 284.183C1219.29 285.892 1224.5 286.746 1231.58 286.746H1238.29L1236.34 296.39C1232.84 296.878 1228.73 297.326 1224.01 297.732C1219.37 298.139 1214.04 298.343 1208.02 298.343ZM1293.23 298.343C1285.98 298.343 1279.88 296.552 1274.92 292.972C1270.03 289.391 1267.59 283.287 1267.59 274.661C1267.59 272.789 1267.71 270.796 1267.96 268.68C1268.28 266.482 1268.69 264.163 1269.18 261.722L1280.77 210.452C1281.18 208.662 1281.51 206.993 1281.75 205.447C1282 203.901 1282.12 202.518 1282.12 201.297C1282.12 198.449 1281.55 196.251 1280.41 194.705C1279.35 193.159 1277.64 192.142 1275.28 191.653L1266.13 189.7L1267.83 181.644L1321.67 178.836L1302.62 263.309C1302.22 265.262 1301.89 267.093 1301.65 268.802C1301.4 270.429 1301.28 271.935 1301.28 273.318C1301.28 278.445 1302.83 282.026 1305.92 284.061C1309.01 286.095 1313.9 287.112 1320.57 287.112L1318.74 295.413C1314.34 296.227 1310.15 296.919 1306.17 297.488C1302.26 298.058 1297.95 298.343 1293.23 298.343ZM1309.71 160.77C1303.52 160.77 1298.72 159.101 1295.3 155.765C1291.88 152.428 1290.17 148.44 1290.17 143.802C1290.17 139.163 1291.88 135.216 1295.3 131.961C1298.72 128.706 1303.52 127.078 1309.71 127.078C1316.05 127.078 1320.85 128.706 1324.11 131.961C1327.45 135.216 1329.11 139.163 1329.11 143.802C1329.11 148.44 1327.45 152.428 1324.11 155.765C1320.85 159.101 1316.05 160.77 1309.71 160.77ZM1393.81 298.953C1377.7 298.953 1365.21 294.396 1356.34 285.281C1347.47 276.167 1343.03 264.326 1343.03 249.759C1343.03 241.539 1344.33 233.198 1346.94 224.734C1349.62 216.189 1353.73 208.336 1359.27 201.175C1364.88 194.013 1372.08 188.235 1380.87 183.841C1389.74 179.365 1400.36 177.127 1412.73 177.127C1428.68 177.127 1440.97 181.766 1449.6 191.043C1458.31 200.32 1462.66 212.365 1462.66 227.176C1462.66 236.128 1461.24 244.876 1458.39 253.421C1455.62 261.966 1451.39 269.697 1445.69 276.614C1439.99 283.45 1432.83 288.903 1424.21 292.972C1415.66 296.959 1405.53 298.953 1393.81 298.953ZM1395.15 288.821C1400.44 288.821 1405.04 287.031 1408.95 283.45C1412.85 279.788 1416.15 275.068 1418.84 269.29C1421.52 263.512 1423.68 257.368 1425.31 250.857C1427.01 244.266 1428.24 237.959 1428.97 231.937C1429.7 225.914 1430.07 220.91 1430.07 216.922C1430.07 208.133 1428.56 201.012 1425.55 195.56C1422.54 190.107 1417.82 187.381 1411.39 187.381C1406.1 187.381 1401.5 189.09 1397.6 192.508C1393.69 195.926 1390.35 200.361 1387.59 205.813C1384.9 211.266 1382.7 217.166 1380.99 223.514C1379.37 229.78 1378.15 235.883 1377.33 241.824C1376.6 247.765 1376.23 252.811 1376.23 256.961C1376.23 262.983 1376.88 268.395 1378.19 273.196C1379.57 277.998 1381.65 281.823 1384.41 284.671C1387.26 287.438 1390.84 288.821 1395.15 288.821ZM1588.64 298.953C1583.75 298.953 1579.36 298.302 1575.45 297C1571.63 295.779 1568.58 293.623 1566.3 290.53C1564.02 287.356 1562.88 283.003 1562.88 277.469C1562.88 275.678 1563.04 273.603 1563.37 271.243C1563.69 268.802 1564.1 266.523 1564.59 264.407L1574.23 218.875C1574.56 217.41 1574.76 216.067 1574.84 214.847C1575 213.545 1575.09 212.324 1575.09 211.185C1575.09 207.278 1574.19 204.064 1572.4 201.541C1570.61 199.018 1567.72 197.757 1563.73 197.757C1560.07 197.757 1556.45 198.855 1552.87 201.053C1549.37 203.25 1545.99 206.261 1542.74 210.086C1539.48 213.829 1536.39 218.183 1533.46 223.147L1517.22 297H1483.17L1502.21 210.452C1502.62 208.58 1502.9 206.871 1503.06 205.325C1503.31 203.698 1503.43 202.273 1503.43 201.053C1503.43 198.286 1502.9 196.17 1501.84 194.705C1500.79 193.159 1499.12 192.142 1496.84 191.653L1487.68 189.7L1489.39 181.644L1540.05 178.836L1535.66 208.377C1539.4 202.762 1543.51 197.675 1547.99 193.118C1552.54 188.561 1557.63 184.98 1563.25 182.376C1568.86 179.772 1575.05 178.47 1581.8 178.47C1590.83 178.47 1597.67 180.87 1602.31 185.672C1607.03 190.473 1609.39 197.513 1609.39 206.79C1609.39 209.069 1609.22 211.591 1608.9 214.358C1608.57 217.044 1608.09 219.852 1607.43 222.781L1597.91 266.604C1597.67 267.907 1597.47 269.168 1597.3 270.389C1597.14 271.528 1597.06 272.627 1597.06 273.685C1597.06 278.242 1598.52 281.66 1601.45 283.938C1604.46 286.217 1609.51 287.356 1616.59 287.356L1614.76 295.535C1610.77 296.674 1606.66 297.529 1602.43 298.099C1598.2 298.668 1593.6 298.953 1588.64 298.953Z" fill="#296B9F"/>
<path d="M239.852 571.809C372.342 571.809 479.705 464.14 479.705 331.271C479.705 198.402 372.342 90.7327 239.852 90.7327C107.362 90.7327 0 198.402 0 331.271C0 464.14 107.362 571.809 239.852 571.809Z" fill="#F2B300"/>
<path d="M153.384 297.431C158.457 296.159 168.602 289.164 176.212 289.164C183.821 289.164 190.796 291.496 193.332 292.979L194.6 292.343C165.504 273.585 114.44 272.29 80.4635 269.451C72.8544 268.815 77.9271 278.989 65.2453 277.082C55.0998 275.555 56.368 284.077 58.2702 288.528C60.3843 292.343 65.8793 298.067 73.4885 301.246C81.4501 304.573 86.1703 306.333 98.2181 307.605C110.266 308.877 119.143 295.523 129.923 296.159C138.803 296.683 145.141 299.497 153.384 297.431Z" fill="#002045"/>
<path d="M271.311 294.703C268.153 291.072 266.885 287.257 261.812 289.605C276.435 281.754 394.16 263.761 401.947 289.8C403.849 296.16 405.117 296.795 410.824 298.703C415.326 300.209 415.504 308.21 412.092 310.785C405.993 315.391 394.972 318.416 386.095 314.601C373.819 309.325 361.34 315.238 347.415 314.601C322.876 313.478 330.041 302.519 304.297 302.519C295.153 302.519 279.072 303.642 271.311 294.703Z" fill="#002045"/>
<path d="M391.901 280.954C384.025 279.479 385.128 275.504 385.128 275.504L381.768 273.615C381.768 273.615 380.01 277.677 380.969 279.999C382.597 283.944 391.71 282.011 391.71 282.011L391.901 280.954Z" fill="#002045"/>
<path d="M313.303 290.69C307.977 288.401 339.808 293.87 345.515 295.015C350.461 296.159 350.841 301.119 354.392 303.281C359.465 306.334 364.03 304.045 368.342 305.062C369.737 305.316 372.147 310.785 381.151 310.404C389.014 310.022 387.872 305.952 389.901 305.443C412.095 299.466 393.833 286.748 391.296 284.713C385.209 279.244 384.829 284.331 385.082 276.065C385.336 267.289 412.348 268.052 412.095 252.027C411.841 235.875 399.54 231.551 390.409 230.534C386.097 230.025 383.053 226.082 383.814 221.758C384.194 219.342 383.941 216.671 381.912 214.636C377.093 209.803 374.303 215.018 369.737 212.092C367.835 210.948 367.581 208.023 366.313 206.369C360.099 198.484 350.588 202.935 350.841 198.993C351.095 193.397 363.396 200.265 366.313 200.646C369.357 201.028 378.107 201.282 380.77 194.414C381.405 192.888 381.658 190.98 381.531 188.564C380.517 174.065 392.565 181.442 395.101 171.649C399.793 153.716 390.535 139.726 373.034 134.003C362.255 130.569 351.475 135.148 348.051 135.148C342.091 135.148 338.667 128.026 342.471 123.32C346.656 117.852 348.685 111.111 341.964 106.787C331.945 100.301 327.253 111.874 322.688 108.949C316.093 104.625 328.521 90.2532 320.658 76.8992C315.839 68.6324 308.611 75.6274 307.089 67.9965C306.201 63.1636 317.107 57.9491 315.078 48.5376C313.937 43.196 307.089 41.797 303.538 41.6699C297.451 41.4155 295.422 37.4729 294.027 31.4954C291.11 18.5229 279.442 7.58522 256.742 10.7648C251.923 11.4007 247.611 11.7822 244.948 11.1463C243.933 10.8919 237.085 4.15132 233.027 2.37078C220.979 -2.71647 208.804 -0.0456571 208.551 14.5802C202.463 17.7598 192.191 12.7997 188.64 20.5578C185.089 28.443 196.757 32.64 194.854 40.0165C188.006 42.433 174.437 37.8544 173.168 47.6474C172.534 52.4803 176.846 58.3306 170.252 59.6024C165.052 60.6199 147.551 59.3481 147.297 75.3729C147.171 86.0561 156.809 83.8942 161.628 91.1435C162.896 93.1784 163.911 95.8492 166.32 98.0113C169.744 101.064 173.929 102.081 177.607 102.081C180.143 102.081 180.524 105.897 177.861 106.151C173.676 106.405 167.842 103.226 160.74 105.261C155.033 106.914 154.78 110.348 153.004 111.111C146.79 114.036 143.873 108.822 132.586 112.51C128.275 113.909 119.651 116.453 115.212 137.564C114.198 142.397 111.661 146.976 109.886 148.883C106.462 152.317 103.545 155.624 96.9504 157.786C83.254 162.11 71.2062 163.891 70.3185 187.292C69.9381 196.195 74.1231 205.097 80.9713 209.294C87.5659 213.364 96.8236 212.983 106.715 203.571C110.393 200.137 112.676 194.287 119.144 192.888L121.68 193.142C132.079 205.733 138.927 192.888 146.917 189.836C150.468 188.437 155.414 188.691 159.472 187.419C164.672 185.766 168.857 181.569 175.071 181.187C177.353 181.06 196.123 184.113 192.572 188.055C188.006 189.454 179.509 188.055 177.988 193.397C177.1 196.322 179.129 202.935 175.832 203.953C172.661 204.97 169.871 202.808 166.954 201.791C159.472 198.993 154.272 201.028 151.863 203.19C143.873 210.439 147.931 216.798 146.41 219.087C144.127 222.394 135.884 217.561 129.036 220.486C124.09 222.648 121.553 224.683 118.383 236.384C117.622 239.309 114.578 240.963 111.661 240.072C108.364 239.055 104.433 238.928 101.77 243.252C100.882 244.651 101.135 247.322 99.8672 248.721C98.3454 250.247 96.4431 247.83 92.8922 249.102C86.5513 251.264 83.8881 259.277 89.2145 263.728C91.2436 265.509 92.8922 266.272 92.0045 267.798C89.5949 272.376 82.3663 268.561 77.9276 270.087C74.5035 271.232 77.8008 277.464 74.2499 279.244C67.2748 282.678 60.5534 274.157 63.4703 289.419C64.2312 293.488 77.8008 286.621 74.8839 291.326C62.9719 307.253 90.541 293.87 110.393 293.87C114.451 293.87 143.112 296.795 147.044 296.159C159.092 293.997 153.131 291.326 170.632 290.69C178.241 290.182 195.235 293.234 202.971 295.142C209.819 296.795 216.033 300.23 224.023 303.41C226.686 304.427 228.588 306.97 228.715 309.895C229.095 315.618 229.095 320.834 229.095 321.851V351.484C229.095 433.677 225.747 489.069 223.515 571.252C228.715 571.634 234.041 571.761 239.241 571.761C244.44 571.761 252.81 571.507 259.532 570.871C258.137 482.098 256.615 427.92 256.615 427.92C256.615 426.649 256.615 409.479 255.727 387.858C255.727 378.447 253.698 321.85 254.586 308.496C257.706 260.439 310.132 314.092 313.303 290.69ZM230.871 284.331C230.871 290.563 224.657 294.506 218.95 292.089C215.779 290.818 207.536 288.401 204.239 287.511C190.669 283.95 179.256 285.476 167.969 276.955C165.813 275.302 166.954 271.868 169.744 271.995C173.295 271.995 177.1 269.706 181.158 269.578C189.401 269.324 191.684 273.394 199.42 266.144C201.576 264.237 202.337 260.93 205.254 259.404C209.692 257.115 221.867 258.386 225.418 261.566C229.983 265.509 230.871 268.942 230.871 273.648V283.95V284.331ZM227.066 252.027L214.131 250.501C211.341 250.247 209.185 247.83 209.185 245.16C209.185 242.489 211.341 239.945 214.004 239.818C217.048 239.564 220.091 238.673 221.106 236.384C223.008 232.441 220.725 229.008 226.179 229.262C228.208 229.262 230.11 230.661 230.871 232.696C232.519 237.147 233.154 241.726 233.28 246.431C233.28 249.738 230.617 252.282 227.32 252.027H227.066ZM252.684 180.043C252.684 176.736 254.84 173.684 258.137 172.921C262.956 171.776 269.931 171.776 274.496 173.429C276.779 174.32 277.413 177.372 275.638 179.152C272.467 182.459 274.623 186.147 273.989 188.564C271.706 197.975 264.605 197.339 258.137 201.791C255.854 203.317 252.684 201.791 252.684 198.993V180.043ZM291.262 263.582C287.077 266.761 285.276 273.775 280.964 276.701L259.532 284.713C256.869 285.73 254.079 283.823 253.952 281.025C253.698 276.955 253.064 268.052 256.742 262.838C260.293 257.751 278.808 253.045 289.461 255.207C293.392 255.97 294.407 261.184 291.236 263.601L291.262 263.582ZM291.363 223.412C287.939 222.14 286.037 218.451 281.979 218.833C278.047 219.215 275.131 224.175 271.072 225.192C268.156 225.955 265.365 225.319 262.702 225.955C261.434 226.21 260.293 226.973 259.151 227.609C256.615 229.135 253.698 226.337 254.966 223.793C258.644 216.162 270.565 210.058 277.54 209.676C283.881 209.294 292.124 213.11 295.168 219.215C296.436 221.631 294.027 224.429 291.49 223.412H291.363Z" fill="#002045"/>
<path d="M808.676 500.536C803.196 500.536 798.047 499.994 793.229 498.91C788.412 497.765 784.166 496.32 780.493 494.574C776.879 492.767 774.109 490.9 772.182 488.973L770.014 499.452H761.252L766.853 461.512H778.505C778.746 468.016 780.222 473.617 782.932 478.314C785.642 482.951 789.255 486.504 793.771 488.973C798.288 491.442 803.377 492.677 809.038 492.677C816.385 492.677 821.865 490.629 825.478 486.534C829.152 482.439 830.988 477.11 830.988 470.545C830.988 467.354 830.266 464.403 828.82 461.693C827.375 458.923 824.966 456.243 821.594 453.653C818.221 451.064 813.524 448.384 807.502 445.614C801.721 442.964 796.512 440.013 791.875 436.761C787.298 433.509 783.684 429.715 781.035 425.379C778.385 421.043 777.06 415.895 777.06 409.933C777.06 401.983 779.047 395.51 783.022 390.511C787.057 385.453 792.447 381.719 799.191 379.31C805.936 376.901 813.404 375.697 821.594 375.697C828.579 375.697 834.873 376.66 840.473 378.587C846.134 380.514 850.349 382.592 853.12 384.82L854.746 377.503H863.508L858.72 411.288H846.887C846.345 402.556 843.725 395.75 839.028 390.873C834.391 385.995 828.369 383.556 820.961 383.556C817.288 383.556 813.976 384.188 811.025 385.453C808.074 386.717 805.695 388.674 803.889 391.324C802.142 393.914 801.269 397.286 801.269 401.441C801.269 404.151 801.901 406.741 803.166 409.21C804.491 411.679 806.84 414.178 810.212 416.708C813.645 419.177 818.432 421.856 824.575 424.747C831.56 427.879 837.372 431.191 842.009 434.684C846.646 438.116 850.109 442 852.397 446.336C854.746 450.612 855.92 455.641 855.92 461.422C855.92 470.274 853.933 477.621 849.958 483.463C845.983 489.244 840.443 493.55 833.337 496.38C826.231 499.151 818.011 500.536 808.676 500.536ZM889.343 499L884.465 434.955C884.164 430.619 883.622 427.367 882.839 425.199C882.056 423.031 880.4 421.646 877.871 421.043L871.909 419.598L873.173 413.636L906.145 411.739L911.655 485.45C920.688 476.297 927.824 466.45 933.063 455.912C938.363 445.373 941.133 434.262 941.374 422.579C941.374 420.953 941.314 419.297 941.193 417.611C941.073 415.925 940.862 414.238 940.561 412.552H962.421C962.301 419.839 960.645 427.367 957.453 435.135C954.261 442.904 950.046 450.612 944.807 458.26C939.628 465.848 933.967 473.135 927.824 480.121C921.682 487.046 915.599 493.339 909.577 499H889.343ZM1008.85 500.536C1000.06 500.536 992.622 499.03 986.54 496.019C980.518 492.948 975.941 488.642 972.81 483.102C969.738 477.561 968.203 471.027 968.203 463.5C968.203 457.056 969.226 450.733 971.274 444.53C973.382 438.267 976.573 432.576 980.849 427.457C985.185 422.338 990.665 418.243 997.29 415.172C1003.97 412.101 1011.89 410.565 1021.05 410.565C1031.77 410.565 1039.87 412.462 1045.35 416.256C1050.89 420.05 1053.66 424.988 1053.66 431.07C1053.66 435.105 1052.63 438.899 1050.59 442.452C1048.54 446.005 1045.14 449.167 1040.38 451.937C1035.62 454.707 1029.24 456.875 1021.23 458.441C1013.22 460.007 1003.25 460.79 991.328 460.79L993.044 457.176C992.863 458.32 992.713 459.585 992.592 460.97C992.532 462.355 992.502 463.771 992.502 465.216C992.502 472.322 993.887 478.404 996.657 483.463C999.488 488.461 1004.22 490.96 1010.84 490.96C1016.5 490.96 1021.23 489.214 1025.02 485.721C1028.82 482.228 1031.5 476.899 1033.06 469.732H1051.13C1048.48 479.368 1043.57 486.926 1036.4 492.406C1029.3 497.826 1020.11 500.536 1008.85 500.536ZM993.134 453.292L991.057 452.569C1004.31 452.569 1014.21 450.431 1020.78 446.156C1027.4 441.82 1030.71 436.219 1030.71 429.354C1030.71 426.042 1029.75 423.422 1027.82 421.495C1025.95 419.508 1023.21 418.514 1019.6 418.514C1015.45 418.514 1011.59 419.959 1008.04 422.85C1004.49 425.741 1001.44 429.776 998.916 434.955C996.386 440.134 994.459 446.246 993.134 453.292ZM1129.17 440.284C1129.96 435.587 1129.9 432.004 1128.99 429.535C1128.09 427.005 1126.46 425.741 1124.12 425.741C1122.07 425.741 1119.99 426.704 1117.88 428.631C1115.78 430.498 1113.73 432.967 1111.74 436.039C1109.75 439.11 1107.92 442.452 1106.23 446.065L1094.76 499H1069.46L1083.65 434.955C1084.61 430.619 1084.82 427.367 1084.28 425.199C1083.74 422.971 1082.2 421.585 1079.67 421.043L1072.9 419.598L1074.16 413.636L1111.65 411.559L1108.58 432.696C1110.81 428.541 1113.25 424.868 1115.9 421.676C1118.61 418.484 1121.59 415.985 1124.84 414.178C1128.15 412.372 1131.73 411.468 1135.59 411.468C1141.85 411.468 1146.31 414.088 1148.96 419.327C1151.67 424.506 1152.3 431.492 1150.85 440.284H1129.17ZM1180.84 499.994C1175.48 499.994 1170.97 498.669 1167.29 496.019C1163.68 493.369 1161.87 488.853 1161.87 482.469C1161.87 481.084 1161.96 479.609 1162.15 478.043C1162.39 476.417 1162.69 474.701 1163.05 472.894L1171.63 434.955C1171.93 433.63 1172.17 432.395 1172.35 431.251C1172.53 430.107 1172.62 429.083 1172.62 428.18C1172.62 426.072 1172.2 424.446 1171.36 423.302C1170.58 422.158 1169.31 421.405 1167.57 421.043L1160.79 419.598L1162.06 413.636L1201.89 411.559L1187.8 474.068C1187.5 475.514 1187.26 476.869 1187.08 478.133C1186.9 479.338 1186.81 480.452 1186.81 481.476C1186.81 485.27 1187.95 487.919 1190.24 489.425C1192.53 490.93 1196.14 491.683 1201.08 491.683L1199.72 497.826C1196.47 498.428 1193.37 498.94 1190.42 499.361C1187.53 499.783 1184.34 499.994 1180.84 499.994ZM1193.04 398.189C1188.46 398.189 1184.91 396.955 1182.38 394.486C1179.85 392.017 1178.59 389.066 1178.59 385.633C1178.59 382.201 1179.85 379.28 1182.38 376.871C1184.91 374.462 1188.46 373.258 1193.04 373.258C1197.74 373.258 1201.29 374.462 1203.7 376.871C1206.17 379.28 1207.4 382.201 1207.4 385.633C1207.4 389.066 1206.17 392.017 1203.7 394.486C1201.29 396.955 1197.74 398.189 1193.04 398.189ZM1245.88 533.055C1236.07 533.055 1228.24 532.062 1222.4 530.074C1216.56 528.147 1212.37 525.648 1209.84 522.577C1207.25 519.505 1205.96 516.284 1205.96 512.911C1205.96 509.238 1206.98 506.136 1209.03 503.607C1211.08 501.138 1213.79 499.09 1217.16 497.464C1220.53 495.838 1224.17 494.574 1228.09 493.67C1232 492.707 1235.8 491.984 1239.47 491.502L1244.89 480.211L1259.16 480.392C1271.45 480.572 1280.54 482.65 1286.44 486.625C1292.4 490.539 1295.39 496.049 1295.39 503.155C1295.39 508.937 1294 513.754 1291.23 517.608C1288.46 521.523 1284.73 524.594 1280.03 526.822C1275.33 529.111 1270.03 530.707 1264.13 531.61C1258.23 532.573 1252.15 533.055 1245.88 533.055ZM1247.69 525.738C1252.39 525.738 1256.42 525.046 1259.79 523.661C1263.23 522.276 1265.88 520.318 1267.74 517.789C1269.67 515.26 1270.63 512.309 1270.63 508.937C1270.63 505.444 1269.25 502.764 1266.48 500.897C1263.77 499.03 1259.22 498.006 1252.84 497.826L1239.56 497.284C1236.19 498.368 1233.3 500.265 1230.89 502.975C1228.48 505.745 1227.27 508.786 1227.27 512.098C1227.27 515.651 1228.9 518.813 1232.15 521.583C1235.4 524.353 1240.58 525.738 1247.69 525.738ZM1238.93 494.664C1230.44 493.881 1224.23 492.075 1220.32 489.244C1216.47 486.414 1214.54 483.282 1214.54 479.85C1214.54 475.694 1216.59 472.292 1220.68 469.642C1224.78 466.992 1230.47 464.583 1237.75 462.416L1240.64 466.571C1239.02 466.992 1237.3 467.805 1235.5 469.01C1233.75 470.154 1232.79 471.66 1232.6 473.526C1232.42 475.393 1234.02 476.989 1237.39 478.314C1240.76 479.639 1246.88 480.331 1255.73 480.392L1238.93 494.664ZM1256.45 470.365C1244.89 470.365 1236.13 467.866 1230.17 462.867C1224.2 457.809 1221.22 451.425 1221.22 443.717C1221.22 436.791 1223.09 430.829 1226.82 425.831C1230.56 420.833 1235.62 416.979 1242 414.269C1248.38 411.559 1255.49 410.204 1263.32 410.204C1274.82 410.204 1283.46 412.673 1289.24 417.611C1295.02 422.489 1297.91 428.902 1297.91 436.852C1297.91 443.897 1296.11 449.92 1292.49 454.918C1288.88 459.916 1283.94 463.74 1277.68 466.39C1271.42 469.04 1264.34 470.365 1256.45 470.365ZM1256.81 463.409C1260.07 463.409 1262.84 462.446 1265.12 460.519C1267.47 458.591 1269.37 456.092 1270.81 453.021C1272.26 449.95 1273.34 446.698 1274.07 443.265C1274.79 439.772 1275.15 436.52 1275.15 433.509C1275.15 427.848 1274.01 423.693 1271.72 421.043C1269.49 418.394 1266.57 417.069 1262.96 417.069C1259.7 417.069 1256.9 418.032 1254.56 419.959C1252.27 421.826 1250.37 424.265 1248.86 427.276C1247.42 430.227 1246.33 433.389 1245.61 436.761C1244.89 440.073 1244.53 443.235 1244.53 446.246C1244.53 452.088 1245.73 456.424 1248.14 459.254C1250.55 462.024 1253.44 463.409 1256.81 463.409ZM1284.09 421.676L1282.29 414.72C1285.66 408.337 1290.03 403.971 1295.39 401.622C1300.74 399.273 1306.98 398.099 1314.08 398.099L1311.01 416.256C1307.76 415.834 1304.51 415.714 1301.26 415.895C1298 416.075 1294.9 416.617 1291.95 417.521C1289 418.424 1286.38 419.809 1284.09 421.676ZM1353.92 500.536C1345.13 500.536 1337.69 499.03 1331.61 496.019C1325.59 492.948 1321.01 488.642 1317.88 483.102C1314.81 477.561 1313.27 471.027 1313.27 463.5C1313.27 457.056 1314.29 450.733 1316.34 444.53C1318.45 438.267 1321.64 432.576 1325.92 427.457C1330.25 422.338 1335.73 418.243 1342.36 415.172C1349.04 412.101 1356.96 410.565 1366.12 410.565C1376.83 410.565 1384.93 412.462 1390.41 416.256C1395.95 420.05 1398.73 424.988 1398.73 431.07C1398.73 435.105 1397.7 438.899 1395.65 442.452C1393.61 446.005 1390.2 449.167 1385.45 451.937C1380.69 454.707 1374.31 456.875 1366.3 458.441C1358.29 460.007 1348.32 460.79 1336.4 460.79L1338.11 457.176C1337.93 458.32 1337.78 459.585 1337.66 460.97C1337.6 462.355 1337.57 463.771 1337.57 465.216C1337.57 472.322 1338.96 478.404 1341.73 483.463C1344.56 488.461 1349.28 490.96 1355.91 490.96C1361.57 490.96 1366.3 489.214 1370.09 485.721C1373.88 482.228 1376.56 476.899 1378.13 469.732H1396.2C1393.55 479.368 1388.64 486.926 1381.47 492.406C1374.37 497.826 1365.18 500.536 1353.92 500.536ZM1338.2 453.292L1336.12 452.569C1349.37 452.569 1359.28 450.431 1365.84 446.156C1372.47 441.82 1375.78 436.219 1375.78 429.354C1375.78 426.042 1374.82 423.422 1372.89 421.495C1371.02 419.508 1368.28 418.514 1364.67 418.514C1360.51 418.514 1356.66 419.959 1353.11 422.85C1349.55 425.741 1346.51 429.776 1343.98 434.955C1341.45 440.134 1339.53 446.246 1338.2 453.292Z" fill="#002045"/>
</g>
<defs>
<clipPath id="clip0_1775_4849">
<rect width="1617" height="572" fill="white"/>
</clipPath>
</defs>
</svg>
